<svg width="28" height="28" viewBox="0 0 28 28" fill="none" xmlns="http://www.w3.org/2000/svg">
<path fill-rule="evenodd" clip-rule="evenodd" d="M14.8248 2.67557C14.606 2.45685 14.3093 2.33398 14 2.33398C13.6906 2.33398 13.3939 2.45685 13.1751 2.67557L5.00847 10.8422L2.67514 13.1756C2.56371 13.2832 2.47483 13.4119 2.41369 13.5543C2.35254 13.6966 2.32036 13.8497 2.31901 14.0046C2.31767 14.1595 2.34719 14.3131 2.40585 14.4565C2.46451 14.5999 2.55114 14.7302 2.66068 14.8397C2.77022 14.9492 2.90048 15.0359 3.04386 15.0945C3.18724 15.1532 3.34087 15.1827 3.49577 15.1814C3.65068 15.18 3.80377 15.1478 3.94611 15.0867C4.08845 15.0255 4.21718 14.9367 4.32481 14.8252L4.66664 14.4834V22.1671C4.66664 23.0953 5.03539 23.9856 5.69177 24.6419C6.34814 25.2983 7.23838 25.6671 8.16664 25.6671H19.8333C20.7616 25.6671 21.6518 25.2983 22.3082 24.6419C22.9646 23.9856 23.3333 23.0953 23.3333 22.1671V14.4834L23.6751 14.8252C23.8952 15.0378 24.1899 15.1553 24.4958 15.1527C24.8017 15.15 25.0943 15.0273 25.3106 14.811C25.5269 14.5947 25.6496 14.3021 25.6523 13.9962C25.6549 13.6903 25.5373 13.3956 25.3248 13.1756L14.8248 2.67557Z" fill="#B9DB28"/>
</svg>
