<svg width="24" height="24" viewBox="0 0 24 24" fill="none" xmlns="http://www.w3.org/2000/svg">
<path d="M18.5193 2H5.46223C3.5486 2.00509 2 3.5578 2 5.47147V18.5378C2.00509 20.4514 3.5578 22 5.47147 22H18.5193C20.433 22 21.9857 20.4514 21.9908 18.5378V5.47147C21.9908 3.55421 20.4366 2 18.5193 2ZM10.628 8.91527H15.232V9.744H10.628V8.91527ZM4.93737 6.6777C4.94747 5.86615 5.60825 5.21357 6.41989 5.21361H8.0221C8.82558 5.21866 9.47285 5.87414 9.46776 6.67766V8.31673C9.46271 9.11007 8.81548 9.74905 8.02214 9.744H8.0221H6.41989C5.6203 9.7494 4.96236 9.11598 4.93737 8.31673V6.6777ZM19.0442 17.7274C19.0393 18.2863 18.5901 18.7396 18.0313 18.7495H5.9779C5.40836 18.7546 4.94251 18.297 4.93737 17.7275C4.93737 17.7275 4.93737 17.7275 4.93737 17.7274V12C4.94743 11.4356 5.41316 10.9862 5.97756 10.9963C5.97768 10.9963 5.97777 10.9963 5.9779 10.9963H18.0313C18.5871 10.9963 19.0391 11.4442 19.0442 12V17.7274ZM19.0442 7.85635H10.628V7.02762H19.0442V7.85635ZM19.0442 6.01472H10.628V5.21361H19.0442V6.01472Z" fill="#1C1C1C"/>
<path d="M18.5193 2H5.46223C3.5486 2.00509 2 3.5578 2 5.47147V18.5378C2.00509 20.4514 3.5578 22 5.47147 22H18.5193C20.433 22 21.9857 20.4514 21.9908 18.5378V5.47147C21.9908 3.55421 20.4366 2 18.5193 2ZM10.628 8.91527H15.232V9.744H10.628V8.91527ZM4.93737 6.6777C4.94747 5.86615 5.60825 5.21357 6.41989 5.21361H8.0221C8.82558 5.21866 9.47285 5.87414 9.46776 6.67766V8.31673C9.46271 9.11007 8.81548 9.74905 8.02214 9.744H8.0221H6.41989C5.6203 9.7494 4.96236 9.11598 4.93737 8.31673V6.6777ZM19.0442 17.7274C19.0393 18.2863 18.5901 18.7396 18.0313 18.7495H5.9779C5.40836 18.7546 4.94251 18.297 4.93737 17.7275C4.93737 17.7275 4.93737 17.7275 4.93737 17.7274V12C4.94743 11.4356 5.41316 10.9862 5.97756 10.9963C5.97768 10.9963 5.97777 10.9963 5.9779 10.9963H18.0313C18.5871 10.9963 19.0391 11.4442 19.0442 12V17.7274ZM19.0442 7.85635H10.628V7.02762H19.0442V7.85635ZM19.0442 6.01472H10.628V5.21361H19.0442V6.01472Z" fill="black" fill-opacity="0.2"/>
</svg>
