<svg width="24" height="24" viewBox="0 0 24 24" fill="none" xmlns="http://www.w3.org/2000/svg">
<path d="M9.81918 12.8304C7.72574 11.6275 7.00319 8.95211 8.20613 6.85866C9.40908 4.76522 12.0845 4.04267 14.1779 5.24562C16.2714 6.44857 16.9939 9.12396 15.791 11.2174C15.4043 11.8892 14.8497 12.4438 14.1779 12.8304C16.8885 13.6624 18.8999 15.9472 19.3803 18.7397C21.0675 16.9002 22.001 14.4943 21.9971 11.9985C21.9971 6.47591 17.5212 2 11.9985 2C6.47592 2 2.00001 6.47591 2.00001 11.9985C1.99611 14.4943 2.92956 16.9002 4.61682 18.7397C5.09721 15.9472 7.10864 13.6624 9.81918 12.8304Z" fill="white"/>
<path d="M17.912 19.9972C17.912 16.7359 15.26 14.084 11.9988 14.084C8.73753 14.084 6.08557 16.7359 6.08557 19.9972V20.0636C9.60459 22.6452 14.389 22.6452 17.9081 20.0636C17.912 20.0401 17.912 20.0206 17.912 19.9972Z" fill="white"/>
<path d="M11.9987 11.839C13.5453 11.839 14.7991 10.5853 14.7991 9.03865C14.7991 7.49205 13.5453 6.23828 11.9987 6.23828C10.4521 6.23828 9.19836 7.49205 9.19836 9.03865C9.19836 10.5853 10.4521 11.839 11.9987 11.839Z" fill="white"/>
</svg>
