<svg width="209" height="83" viewBox="0 0 209 83" fill="none" xmlns="http://www.w3.org/2000/svg">
<path fill-rule="evenodd" clip-rule="evenodd" d="M55.6187 63.7402L59.2505 70.0435C59.3696 70.2501 59.298 70.5161 59.0901 70.6325C46.7566 77.5242 31.0246 76.909 19.0745 67.8565C3.00351 55.6827 -0.245902 32.5756 11.8569 16.4371C14.817 12.49 18.4127 9.31444 22.3907 6.9375C22.5952 6.81531 22.8611 6.88672 22.9801 7.0934L28.6908 17.0047C28.6687 17.0498 28.5723 16.9262 28.4051 16.712C27.8717 16.0284 26.6177 14.4213 24.7564 14.4213C23.7023 14.4213 22.5148 15.39 21.894 15.8964L21.886 15.9029C20.2319 17.3241 18.7074 18.951 17.3507 20.7806C10.839 29.5643 9.90434 40.8952 13.9705 50.3591C14.9381 52.3339 19.6019 50.6395 20.7237 50.2033C20.7561 50.1908 20.7795 50.2352 20.7508 50.2547C19.7219 50.9615 16.0114 54.2781 17.2637 56.1363C18.784 58.2176 20.5989 60.1291 22.7008 61.8044C31.0508 68.4599 41.8357 69.877 51.1627 66.5591C51.9474 66.2747 53.2912 65.7258 53.8028 64.8331C54.7297 63.2158 53.9633 61.3258 53.6373 60.5219C53.5351 60.2699 53.4762 60.1247 53.5262 60.1279L55.6187 63.7402ZM22.6827 9.37962C16.3199 13.7552 11.1649 20.2241 8.45329 28.0032C8.4177 28.1051 8.4797 28.2162 8.58499 28.2397L9.20238 28.3765C10.4994 28.6638 11.8548 27.8539 12.4771 26.551C14.8541 21.5748 18.2942 17.3489 22.3544 13.6192C23.3691 12.6871 23.8575 11.1725 23.2413 10.0069L22.9441 9.44454C22.8938 9.3493 22.7713 9.31865 22.6827 9.37962ZM10.8836 54.3591L11.4166 54.0184C12.5366 53.3026 12.9235 51.7696 12.4443 50.4074C10.6133 45.2046 9.86015 39.7662 10.3028 34.2647C10.4177 32.8365 9.63913 31.4697 8.38074 31.0819L7.77392 30.8949C7.67116 30.8633 7.56283 30.9285 7.54314 31.0343C6.13178 38.6365 7.05139 46.8633 10.6235 54.2853C10.6704 54.3826 10.7927 54.4172 10.8836 54.3591ZM30.9407 71.1997L31.0772 70.5811C31.3641 69.2817 30.5557 67.9234 29.2556 67.2999C24.2895 64.9181 19.9192 61.6061 16.3499 57.4024C15.4234 56.311 13.9082 55.8963 12.7449 56.5137L12.1837 56.8116C12.0888 56.8619 12.0581 56.9847 12.1191 57.0736C16.4857 63.4493 22.9413 68.6149 30.7046 71.3319C30.8064 71.3675 30.9173 71.3054 30.9407 71.1997ZM33.7298 72.2437C41.3166 73.6582 49.5265 72.7368 56.9335 69.1572C57.0306 69.1102 57.0652 68.9878 57.0072 68.8967L56.6671 68.3626C55.9529 67.2403 54.4229 66.8528 53.0635 67.3329C47.8711 69.1674 42.444 69.9222 36.9535 69.4786C35.5282 69.3635 34.1641 70.1437 33.7773 71.4045L33.5906 72.0126C33.559 72.1157 33.6239 72.2242 33.7298 72.2437Z" fill="#B9DB28"/>
<path d="M37.635 48.3309L39.2631 54.5491C39.2777 54.605 39.3548 54.6104 39.3769 54.557L49.5406 30.0944L25.1276 40.2787C25.0744 40.3009 25.0797 40.3782 25.1355 40.3928L31.341 42.0242C34.4213 42.834 36.8269 45.2444 37.635 48.3309Z" fill="#B9DB28"/>
<path d="M89.5264 42.2948H80.4317V50.4685H76.9939V30.8013H80.4317V38.8499H89.5264V30.8013H92.9643V50.4685H89.5264V42.2948Z" fill="#FAF6E7"/>
<path d="M99.2147 30.8013H95.7769V50.4683H99.2147V30.8013Z" fill="#FAF6E7"/>
<path d="M116.998 34.2463H110.591C109.091 34.2463 107.877 34.6378 106.95 35.4207C106.023 36.2035 105.528 37.3466 105.466 38.8499H116.998V42.2948H105.466V50.4683H102.028V39.3197C102.028 38.0044 102.21 36.8251 102.574 35.7809C102.939 34.7371 103.481 33.8445 104.2 33.1032C104.918 32.3624 105.819 31.7934 106.903 31.3964C107.986 31.0001 109.247 30.8014 110.685 30.8014H116.998L116.998 34.2463Z" fill="#FAF6E7"/>
<path d="M127.155 50.4685H123.717V34.2464H118.873V30.8014H131.718V34.2464H127.155V50.4685Z" fill="#FAF6E7"/>
<path d="M147.72 36.7516C148.074 36.5847 148.35 36.371 148.548 36.1096C148.746 35.8489 148.845 35.5724 148.845 35.2798C148.845 35.0087 148.74 34.7684 148.532 34.5595C148.323 34.351 148.001 34.2463 147.563 34.2463H134.468V30.8013H147.47C149.053 30.8013 150.24 31.2193 151.032 32.0542C151.824 32.8893 152.22 33.9751 152.22 35.3112C152.22 35.5616 152.199 35.8748 152.158 36.2506C152.115 36.6265 151.996 37.0233 151.798 37.4406C151.6 37.8586 151.287 38.276 150.86 38.6932C150.433 39.1113 149.834 39.4871 149.063 39.8207L138.281 44.5184C137.635 44.7898 137.312 45.2384 137.312 45.865C137.312 46.6376 137.687 47.0237 138.437 47.0237H151.751V50.4685H138.531C136.947 50.4685 135.754 50.0512 134.953 49.2159C134.15 48.381 133.749 47.3054 133.749 45.9902C133.749 45.6354 133.785 45.2542 133.859 44.8471C133.931 44.44 134.082 44.0327 134.312 43.6256C134.541 43.2185 134.864 42.8273 135.281 42.4514C135.697 42.0755 136.239 41.7417 136.906 41.4492L147.72 36.7516Z" fill="#FAF6E7"/>
<path d="M168.722 36.7516C169.076 36.5847 169.352 36.371 169.55 36.1096C169.748 35.8489 169.847 35.5724 169.847 35.2798C169.847 35.0087 169.742 34.7684 169.534 34.5595C169.326 34.351 169.003 34.2463 168.565 34.2463H155.47V30.8013H168.472C170.055 30.8013 171.243 31.2193 172.035 32.0542C172.826 32.8893 173.222 33.9751 173.222 35.3112C173.222 35.5616 173.201 35.8748 173.16 36.2506C173.118 36.6265 172.998 37.0233 172.8 37.4406C172.602 37.8586 172.29 38.276 171.863 38.6932C171.436 39.1113 170.836 39.4871 170.066 39.8207L159.283 44.5184C158.637 44.7898 158.315 45.2384 158.315 45.865C158.315 46.6376 158.69 47.0237 159.439 47.0237H172.754V50.4685H159.533C157.95 50.4685 156.757 50.0512 155.955 49.2159C155.152 48.381 154.752 47.3054 154.752 45.9902C154.752 45.6354 154.788 45.2542 154.861 44.8471C154.934 44.44 155.085 44.0327 155.314 43.6256C155.543 43.2185 155.866 42.8273 156.283 42.4514C156.7 42.0755 157.241 41.7417 157.908 41.4492L168.722 36.7516Z" fill="#FAF6E7"/>
<path d="M182.254 41.7624L175.003 30.8014H179.129L183.973 38.6933L188.818 30.8014H192.943L185.692 41.5432V50.4683H182.254V41.7624Z" fill="#FAF6E7"/>
<path d="M74.9937 44.7061C74.9937 46.6061 74.4468 48.0416 73.3528 49.0123C72.2591 49.983 70.7325 50.4685 68.7742 50.4685H58.7106V47.0235H69.4306C70.0346 47.0235 70.5402 46.7941 70.9465 46.3347C71.3527 45.8756 71.5558 45.3119 71.5558 44.6434C71.5558 44.0172 71.3527 43.4693 70.9465 42.9995C70.5402 42.5298 70.0346 42.2948 69.4306 42.2948H63.8988C62.7526 42.2948 61.789 42.1225 61.0079 41.778C60.2265 41.4334 59.5906 40.9903 59.1013 40.447C58.6116 39.9043 58.2575 39.2937 58.0388 38.615C57.8201 37.9367 57.7106 37.2633 57.7106 36.595C57.7106 35.8018 57.825 35.0556 58.0544 34.3559C58.2835 33.6568 58.6481 33.0407 59.1483 32.5081C59.6484 31.9758 60.289 31.5584 61.0703 31.2555C61.8517 30.953 62.7941 30.8014 63.8988 30.8014H73.6812V34.2464H63.3674C62.7629 34.2464 62.2423 34.4762 61.8048 34.9352C61.3672 35.3947 61.1485 35.927 61.1485 36.5324C61.1485 37.1797 61.3619 37.7277 61.789 38.1766C62.216 38.6258 62.7526 38.8498 63.3986 38.8498H68.8369C70.7325 38.8498 72.2327 39.3353 73.3372 40.3061C74.4414 41.2769 74.9937 42.7017 74.9937 44.5808L74.9937 44.7061Z" fill="#FAF6E7"/>
<path d="M197.208 24.2166H192.661V24.8431H194.591V30.1431H195.269V24.8431H197.208V24.2166Z" fill="#FAF6E7"/>
<path d="M199.025 24.2166H198.186V30.1431H198.83V25.2156L200.98 29.5166H201.387L203.546 25.2156L203.554 30.1431H204.181V24.2166H203.351L201.192 28.5175L199.025 24.2166Z" fill="#FAF6E7"/>
</svg>
