<svg width="29" height="28" viewBox="0 0 29 28" fill="none" xmlns="http://www.w3.org/2000/svg">
<path fill-rule="evenodd" clip-rule="evenodd" d="M3.08337 4.76232C3.08337 3.42065 4.17004 2.33398 5.51171 2.33398L23.9884 2.33565C25.33 2.33565 26.4167 3.42232 26.4167 4.76398V17.4057C26.4167 18.7473 25.33 19.834 23.9884 19.834H17.2784L18.1717 22.3273H19.75C20.0816 22.3273 20.3995 22.459 20.6339 22.6934C20.8683 22.9279 21 23.2458 21 23.5773C21 23.9088 20.8683 24.2268 20.6339 24.4612C20.3995 24.6956 20.0816 24.8273 19.75 24.8273H9.75004C9.41852 24.8273 9.10058 24.6956 8.86616 24.4612C8.63174 24.2268 8.50004 23.9088 8.50004 23.5773C8.50004 23.2458 8.63174 22.9279 8.86616 22.6934C9.10058 22.459 9.41852 22.3273 9.75004 22.3273H11.33L12.2234 19.834H5.51171C4.17004 19.834 3.08337 18.7473 3.08337 17.4057V4.76232ZM11.0706 11.368C10.214 11.368 9.52016 12.0619 9.52016 12.9184V13.2274C9.52016 13.416 9.52016 14.5041 10.1694 15.5593C10.85 16.6654 12.1751 17.626 14.6048 17.626C17.0344 17.626 18.3596 16.6662 19.0401 15.5585C19.6894 14.5041 19.6894 13.4152 19.6894 13.2274V12.9184C19.6894 12.0619 18.9955 11.368 18.139 11.368H11.0706ZM16.679 9.33548C16.1289 9.8856 15.3828 10.1947 14.6048 10.1947C13.8268 10.1947 13.0806 9.8856 12.5305 9.33548C11.9804 8.78535 11.6713 8.03922 11.6713 7.26123C11.6713 6.48323 11.9804 5.73711 12.5305 5.18698C13.0806 4.63686 13.8268 4.3278 14.6048 4.3278C15.3828 4.3278 16.1289 4.63686 16.679 5.18698C17.2291 5.73711 17.5382 6.48323 17.5382 7.26123C17.5382 8.03922 17.2291 8.78535 16.679 9.33548Z" fill="white"/>
</svg>
