<svg width="24" height="24" viewBox="0 0 24 24" fill="none" xmlns="http://www.w3.org/2000/svg">
<path fill-rule="evenodd" clip-rule="evenodd" d="M15.1576 7.7893C13.1231 7.7893 11.4733 9.37889 11.4733 11.3422C11.4733 13.3034 15.1576 17.263 15.1576 17.263C15.1576 17.263 18.8416 13.3034 18.8416 11.3422C18.842 9.3793 17.1921 7.7893 15.1576 7.7893ZM15.1576 12.7893C14.2849 12.7893 13.5786 12.0826 13.5786 11.2103C13.5786 10.3384 14.2853 9.63128 15.1576 9.63128C16.0296 9.63128 16.7366 10.3379 16.7366 11.2103C16.7366 12.0826 16.03 12.7893 15.1576 12.7893Z" fill="#1C1C1C"/>
<path fill-rule="evenodd" clip-rule="evenodd" d="M15.1576 7.7893C13.1231 7.7893 11.4733 9.37889 11.4733 11.3422C11.4733 13.3034 15.1576 17.263 15.1576 17.263C15.1576 17.263 18.8416 13.3034 18.8416 11.3422C18.842 9.3793 17.1921 7.7893 15.1576 7.7893ZM15.1576 12.7893C14.2849 12.7893 13.5786 12.0826 13.5786 11.2103C13.5786 10.3384 14.2853 9.63128 15.1576 9.63128C16.0296 9.63128 16.7366 10.3379 16.7366 11.2103C16.7366 12.0826 16.03 12.7893 15.1576 12.7893Z" fill="black" fill-opacity="0.2"/>
<path fill-rule="evenodd" clip-rule="evenodd" d="M12 2C10.7108 2 9.47985 2.24668 8.34861 2.69079C8.66205 3.24685 8.84198 3.88594 8.84198 4.56574C8.84198 6.30799 6.75861 8.75975 5.86266 9.73305L4.89465 10.7853L3.92665 9.73305C3.6185 9.39844 3.16991 8.88635 2.71359 8.29081C2.25482 9.43792 2 10.6888 2 12C2 17.5227 6.47651 22 12 22C17.5235 22 22 17.5227 22 12C22 6.47733 17.5231 2 12 2ZM16.1211 18.1593L15.1576 19.1945L14.1941 18.1593C14.0764 18.0331 13.9254 17.8679 13.7512 17.6717C13.5574 17.7795 13.3213 17.8447 13.1304 17.83L11.9801 17.7417C11.6914 17.7193 11.5233 17.4742 11.6068 17.197L11.8119 16.5131C11.895 16.2359 11.7623 15.8834 11.5168 15.73L11.0556 15.4413C10.8101 15.2879 10.4674 15.3518 10.2936 15.5834L8.89449 17.4498C8.72067 17.681 8.7683 18.0128 8.99992 18.1862L9.5116 18.5701C9.74322 18.7435 9.86656 19.1131 9.78596 19.3911L9.66262 19.8149C7.61752 19.2022 5.90865 17.8076 4.88203 15.9795L5.19588 15.6986C5.41122 15.5052 5.63633 15.1153 5.69535 14.832L5.76659 14.4892C5.82561 14.2059 5.71041 13.8033 5.51014 13.5945L5.15232 13.2212C4.95205 13.0124 4.99194 12.7205 5.24106 12.5731L5.88016 12.1946C6.12928 12.0468 6.53228 12.055 6.77571 12.2113L7.41317 12.6216C7.6566 12.7783 8.06489 12.7954 8.32052 12.6599L9.10006 12.2463C9.35569 12.1103 9.61785 11.7688 9.68298 11.4867L9.80917 10.9367C9.8743 10.6546 9.8283 10.2085 9.7074 9.94553L9.26125 8.97468C9.14036 8.71172 9.25637 8.39705 9.51934 8.27575L10.5749 7.78849C10.8378 7.66718 11.0955 7.33502 11.1476 7.05048L11.3035 6.20133C11.3556 5.91639 11.2608 5.491 11.0931 5.2549L10.4926 4.41146C10.4149 4.30196 10.3697 4.15664 10.3563 4.00765C10.8875 3.89937 11.4366 3.84198 11.9992 3.84198C15.5606 3.84198 18.5924 6.13702 19.7021 9.32517C19.9915 9.94065 20.1572 10.6225 20.1572 11.3422C20.1576 13.6421 17.068 17.1417 16.1211 18.1593Z" fill="#1C1C1C"/>
<path fill-rule="evenodd" clip-rule="evenodd" d="M12 2C10.7108 2 9.47985 2.24668 8.34861 2.69079C8.66205 3.24685 8.84198 3.88594 8.84198 4.56574C8.84198 6.30799 6.75861 8.75975 5.86266 9.73305L4.89465 10.7853L3.92665 9.73305C3.6185 9.39844 3.16991 8.88635 2.71359 8.29081C2.25482 9.43792 2 10.6888 2 12C2 17.5227 6.47651 22 12 22C17.5235 22 22 17.5227 22 12C22 6.47733 17.5231 2 12 2ZM16.1211 18.1593L15.1576 19.1945L14.1941 18.1593C14.0764 18.0331 13.9254 17.8679 13.7512 17.6717C13.5574 17.7795 13.3213 17.8447 13.1304 17.83L11.9801 17.7417C11.6914 17.7193 11.5233 17.4742 11.6068 17.197L11.8119 16.5131C11.895 16.2359 11.7623 15.8834 11.5168 15.73L11.0556 15.4413C10.8101 15.2879 10.4674 15.3518 10.2936 15.5834L8.89449 17.4498C8.72067 17.681 8.7683 18.0128 8.99992 18.1862L9.5116 18.5701C9.74322 18.7435 9.86656 19.1131 9.78596 19.3911L9.66262 19.8149C7.61752 19.2022 5.90865 17.8076 4.88203 15.9795L5.19588 15.6986C5.41122 15.5052 5.63633 15.1153 5.69535 14.832L5.76659 14.4892C5.82561 14.2059 5.71041 13.8033 5.51014 13.5945L5.15232 13.2212C4.95205 13.0124 4.99194 12.7205 5.24106 12.5731L5.88016 12.1946C6.12928 12.0468 6.53228 12.055 6.77571 12.2113L7.41317 12.6216C7.6566 12.7783 8.06489 12.7954 8.32052 12.6599L9.10006 12.2463C9.35569 12.1103 9.61785 11.7688 9.68298 11.4867L9.80917 10.9367C9.8743 10.6546 9.8283 10.2085 9.7074 9.94553L9.26125 8.97468C9.14036 8.71172 9.25637 8.39705 9.51934 8.27575L10.5749 7.78849C10.8378 7.66718 11.0955 7.33502 11.1476 7.05048L11.3035 6.20133C11.3556 5.91639 11.2608 5.491 11.0931 5.2549L10.4926 4.41146C10.4149 4.30196 10.3697 4.15664 10.3563 4.00765C10.8875 3.89937 11.4366 3.84198 11.9992 3.84198C15.5606 3.84198 18.5924 6.13702 19.7021 9.32517C19.9915 9.94065 20.1572 10.6225 20.1572 11.3422C20.1576 13.6421 17.068 17.1417 16.1211 18.1593Z" fill="black" fill-opacity="0.2"/>
<path fill-rule="evenodd" clip-rule="evenodd" d="M2.26296 4.56574C2.26296 3.14793 3.44182 2 4.89465 2C6.34787 2 7.52633 3.14793 7.52633 4.56574C7.52633 5.98233 4.89465 8.84198 4.89465 8.84198C4.89465 8.84198 2.26296 5.98274 2.26296 4.56574ZM3.84197 4.36831C3.84197 4.9496 4.31254 5.42099 4.89424 5.42099C5.47594 5.42099 5.94732 4.9496 5.94691 4.36831C5.94691 3.78662 5.47594 3.31564 4.89424 3.31564C4.31254 3.31564 3.84197 3.78662 3.84197 4.36831Z" fill="#1C1C1C"/>
<path fill-rule="evenodd" clip-rule="evenodd" d="M2.26296 4.56574C2.26296 3.14793 3.44182 2 4.89465 2C6.34787 2 7.52633 3.14793 7.52633 4.56574C7.52633 5.98233 4.89465 8.84198 4.89465 8.84198C4.89465 8.84198 2.26296 5.98274 2.26296 4.56574ZM3.84197 4.36831C3.84197 4.9496 4.31254 5.42099 4.89424 5.42099C5.47594 5.42099 5.94732 4.9496 5.94691 4.36831C5.94691 3.78662 5.47594 3.31564 4.89424 3.31564C4.31254 3.31564 3.84197 3.78662 3.84197 4.36831Z" fill="black" fill-opacity="0.2"/>
</svg>
