<svg width="29" height="28" viewBox="0 0 29 28" fill="none" xmlns="http://www.w3.org/2000/svg">
<path d="M12.8083 2.95568C13.2817 2.55671 13.8809 2.33789 14.5 2.33789C15.1191 2.33789 15.7183 2.55671 16.1917 2.95568L24.0667 9.59985C24.6593 10.098 25 10.8318 25 11.6065V14.0588C24.4323 13.4794 23.7048 13.0822 22.9104 12.9179C22.116 12.7536 21.2907 12.8296 20.5397 13.1363C19.7887 13.4429 19.146 13.9663 18.6937 14.6397C18.2414 15.3131 17.9999 16.106 18 16.9172V17.5005C17.867 16.8472 17.2685 16.3525 16.5802 16.3338H12.4198C12.0398 16.3439 11.6787 16.502 11.4134 16.7744C11.1482 17.0468 10.9999 17.412 11 17.7922V22.4623C11 23.0038 10.7849 23.5231 10.402 23.906C10.0191 24.2889 9.49982 24.504 8.95833 24.504H6.04167C5.50018 24.504 4.98088 24.2889 4.59799 23.906C4.2151 23.5231 4 23.0038 4 22.4623V11.6053C4 10.8318 4.34067 10.098 4.93333 9.59868L12.8083 2.95568ZM25 16.9172C25 17.6907 24.6927 18.4326 24.1457 18.9796C23.5987 19.5266 22.8569 19.8338 22.0833 19.8338C21.3098 19.8338 20.5679 19.5266 20.0209 18.9796C19.474 18.4326 19.1667 17.6907 19.1667 16.9172C19.1667 16.1436 19.474 15.4018 20.0209 14.8548C20.5679 14.3078 21.3098 14.0005 22.0833 14.0005C22.8569 14.0005 23.5987 14.3078 24.1457 14.8548C24.6927 15.4018 25 16.1436 25 16.9172ZM27.3333 23.188C27.3333 25.0033 25.833 26.8338 22.0833 26.8338C18.3337 26.8338 16.8333 25.0103 16.8333 23.188V23.0678C16.8333 21.9245 17.7597 21.0005 18.9018 21.0005H25.2648C26.4082 21.0005 27.3333 21.9257 27.3333 23.0678V23.188Z" fill="white"/>
</svg>
