<svg width="24" height="24" viewBox="0 0 24 24" fill="none" xmlns="http://www.w3.org/2000/svg">
<path d="M12 14.6289C9.97656 14.6289 8.31641 16.293 8.31641 18.3125C8.31641 20.332 9.97656 22 12 22C14.0234 22 15.6836 20.3359 15.6836 18.3164C15.6836 16.2969 14.0234 14.6289 12 14.6289ZM13.4492 18.0664L12.1211 19.3945C12.1016 19.4141 12.082 19.4336 12.0586 19.4492C11.9531 19.5273 11.832 19.5664 11.707 19.5664C11.5586 19.5664 11.4063 19.5078 11.293 19.3945L10.5508 18.6523C10.3203 18.4219 10.3203 18.0508 10.5508 17.8242C10.7813 17.5938 11.1523 17.5938 11.3789 17.8242L11.707 18.1523L12.0586 17.8008L12.6211 17.2383C12.8477 17.0117 13.2227 17.0117 13.4492 17.2383C13.6758 17.4648 13.6758 17.8398 13.4492 18.0664Z" fill="#1C1C1C"/>
<path d="M12 14.6289C9.97656 14.6289 8.31641 16.293 8.31641 18.3125C8.31641 20.332 9.97656 22 12 22C14.0234 22 15.6836 20.3359 15.6836 18.3164C15.6836 16.2969 14.0234 14.6289 12 14.6289ZM13.4492 18.0664L12.1211 19.3945C12.1016 19.4141 12.082 19.4336 12.0586 19.4492C11.9531 19.5273 11.832 19.5664 11.707 19.5664C11.5586 19.5664 11.4063 19.5078 11.293 19.3945L10.5508 18.6523C10.3203 18.4219 10.3203 18.0508 10.5508 17.8242C10.7813 17.5938 11.1523 17.5938 11.3789 17.8242L11.707 18.1523L12.0586 17.8008L12.6211 17.2383C12.8477 17.0117 13.2227 17.0117 13.4492 17.2383C13.6758 17.4648 13.6758 17.8398 13.4492 18.0664Z" fill="black" fill-opacity="0.2"/>
<path d="M16.7266 6.61328H17.8984V7.78516H16.7266V6.61328Z" fill="#1C1C1C"/>
<path d="M16.7266 6.61328H17.8984V7.78516H16.7266V6.61328Z" fill="black" fill-opacity="0.2"/>
<path d="M11.4141 6.61328V7.78516H12.5859V6.61328H11.4141ZM11.4141 6.61328V7.78516H12.5859V6.61328H11.4141ZM6.14062 6.61328V7.78516H7.3125V6.61328H6.14062ZM6.14062 11.3008V12.4727H7.3125V11.3008H6.14062ZM11.4141 6.61328V7.78516H12.5859V6.61328H11.4141ZM11.4141 6.61328V7.78516H12.5859V6.61328H11.4141ZM6.14062 6.61328V7.78516H7.3125V6.61328H6.14062ZM6.14062 11.3008V12.4727H7.3125V11.3008H6.14062ZM21.4141 2C21.0898 2 20.8281 2.26172 20.8281 2.58594V3.84375H18.8633V2.58594C18.8633 2.26562 18.5977 2 18.2773 2C17.957 2 17.6914 2.26562 17.6914 2.58594V3.84375H15.7266V2.58594C15.7266 2.26562 15.4609 2 15.1406 2C14.8203 2 14.5547 2.26562 14.5547 2.58594V3.84375H12.5859V2.58594C12.5859 2.26562 12.3203 2 12 2C11.6797 2 11.4141 2.26562 11.4141 2.58594V3.84375H9.44922V2.58594C9.44922 2.26562 9.18359 2 8.86328 2C8.54297 2 8.27734 2.26562 8.27734 2.58594V3.84375H6.3125V2.58594C6.3125 2.26562 6.04688 2 5.72656 2C5.40625 2 5.14062 2.26562 5.14062 2.58594V3.84375H3.17188V2.58594C3.17188 2.26562 2.90625 2 2.58594 2C2.26562 2 2 2.26562 2 2.58594V18.1328C2 18.457 2.26172 18.7188 2.58594 18.7188H7.16016C6.86719 15.9844 9.25 13.3984 12 13.457C14.75 13.3984 17.1328 15.9805 16.8398 18.7188H21.4141C21.7383 18.7188 22 18.457 22 18.1328V2.58594C22 2.26172 21.7383 2 21.4141 2ZM8.48438 13.0586C8.48438 13.3828 8.22266 13.6445 7.89844 13.6445H5.55469C5.23047 13.6445 4.96875 13.3828 4.96875 13.0586V10.7148C4.96875 10.3906 5.23047 10.1289 5.55469 10.1289H7.89844C8.22266 10.1289 8.48438 10.3906 8.48438 10.7148V13.0586ZM8.48438 8.37109C8.48438 8.69531 8.22266 8.95703 7.89844 8.95703H5.55469C5.23047 8.95703 4.96875 8.69531 4.96875 8.37109V6.02734C4.96875 5.70312 5.23047 5.44141 5.55469 5.44141H7.89844C8.22266 5.44141 8.48438 5.70312 8.48438 6.02734V8.37109ZM13.7578 8.37109C13.7578 8.69531 13.4961 8.95703 13.1719 8.95703H10.8281C10.5039 8.95703 10.2422 8.69531 10.2422 8.37109V6.02734C10.2422 5.70312 10.5039 5.44141 10.8281 5.44141H13.1719C13.4961 5.44141 13.7578 5.70312 13.7578 6.02734V8.37109ZM19.0703 13.0586C19.0703 13.3828 18.8086 13.6445 18.4844 13.6445H16.1406C15.8164 13.6445 15.5547 13.3828 15.5547 13.0586V10.7148C15.5547 10.3906 15.8164 10.1289 16.1406 10.1289H18.4844C18.8086 10.1289 19.0703 10.3906 19.0703 10.7148V13.0586ZM19.0703 8.37109C19.0703 8.69531 18.8086 8.95703 18.4844 8.95703H16.1406C15.8164 8.95703 15.5547 8.69531 15.5547 8.37109V6.02734C15.5547 5.70312 15.8164 5.44141 16.1406 5.44141H18.4844C18.8086 5.44141 19.0703 5.70312 19.0703 6.02734V8.37109ZM16.7266 12.4727H17.8984V11.3008H16.7266V12.4727ZM11.4141 7.78516H12.5859V6.61328H11.4141V7.78516ZM6.14062 7.78516H7.3125V6.61328H6.14062V7.78516ZM6.14062 6.61328V7.78516H7.3125V6.61328H6.14062ZM11.4141 6.61328V7.78516H12.5859V6.61328H11.4141Z" fill="#1C1C1C"/>
<path d="M11.4141 6.61328V7.78516H12.5859V6.61328H11.4141ZM11.4141 6.61328V7.78516H12.5859V6.61328H11.4141ZM6.14062 6.61328V7.78516H7.3125V6.61328H6.14062ZM6.14062 11.3008V12.4727H7.3125V11.3008H6.14062ZM11.4141 6.61328V7.78516H12.5859V6.61328H11.4141ZM11.4141 6.61328V7.78516H12.5859V6.61328H11.4141ZM6.14062 6.61328V7.78516H7.3125V6.61328H6.14062ZM6.14062 11.3008V12.4727H7.3125V11.3008H6.14062ZM21.4141 2C21.0898 2 20.8281 2.26172 20.8281 2.58594V3.84375H18.8633V2.58594C18.8633 2.26562 18.5977 2 18.2773 2C17.957 2 17.6914 2.26562 17.6914 2.58594V3.84375H15.7266V2.58594C15.7266 2.26562 15.4609 2 15.1406 2C14.8203 2 14.5547 2.26562 14.5547 2.58594V3.84375H12.5859V2.58594C12.5859 2.26562 12.3203 2 12 2C11.6797 2 11.4141 2.26562 11.4141 2.58594V3.84375H9.44922V2.58594C9.44922 2.26562 9.18359 2 8.86328 2C8.54297 2 8.27734 2.26562 8.27734 2.58594V3.84375H6.3125V2.58594C6.3125 2.26562 6.04688 2 5.72656 2C5.40625 2 5.14062 2.26562 5.14062 2.58594V3.84375H3.17188V2.58594C3.17188 2.26562 2.90625 2 2.58594 2C2.26562 2 2 2.26562 2 2.58594V18.1328C2 18.457 2.26172 18.7188 2.58594 18.7188H7.16016C6.86719 15.9844 9.25 13.3984 12 13.457C14.75 13.3984 17.1328 15.9805 16.8398 18.7188H21.4141C21.7383 18.7188 22 18.457 22 18.1328V2.58594C22 2.26172 21.7383 2 21.4141 2ZM8.48438 13.0586C8.48438 13.3828 8.22266 13.6445 7.89844 13.6445H5.55469C5.23047 13.6445 4.96875 13.3828 4.96875 13.0586V10.7148C4.96875 10.3906 5.23047 10.1289 5.55469 10.1289H7.89844C8.22266 10.1289 8.48438 10.3906 8.48438 10.7148V13.0586ZM8.48438 8.37109C8.48438 8.69531 8.22266 8.95703 7.89844 8.95703H5.55469C5.23047 8.95703 4.96875 8.69531 4.96875 8.37109V6.02734C4.96875 5.70312 5.23047 5.44141 5.55469 5.44141H7.89844C8.22266 5.44141 8.48438 5.70312 8.48438 6.02734V8.37109ZM13.7578 8.37109C13.7578 8.69531 13.4961 8.95703 13.1719 8.95703H10.8281C10.5039 8.95703 10.2422 8.69531 10.2422 8.37109V6.02734C10.2422 5.70312 10.5039 5.44141 10.8281 5.44141H13.1719C13.4961 5.44141 13.7578 5.70312 13.7578 6.02734V8.37109ZM19.0703 13.0586C19.0703 13.3828 18.8086 13.6445 18.4844 13.6445H16.1406C15.8164 13.6445 15.5547 13.3828 15.5547 13.0586V10.7148C15.5547 10.3906 15.8164 10.1289 16.1406 10.1289H18.4844C18.8086 10.1289 19.0703 10.3906 19.0703 10.7148V13.0586ZM19.0703 8.37109C19.0703 8.69531 18.8086 8.95703 18.4844 8.95703H16.1406C15.8164 8.95703 15.5547 8.69531 15.5547 8.37109V6.02734C15.5547 5.70312 15.8164 5.44141 16.1406 5.44141H18.4844C18.8086 5.44141 19.0703 5.70312 19.0703 6.02734V8.37109ZM16.7266 12.4727H17.8984V11.3008H16.7266V12.4727ZM11.4141 7.78516H12.5859V6.61328H11.4141V7.78516ZM6.14062 7.78516H7.3125V6.61328H6.14062V7.78516ZM6.14062 6.61328V7.78516H7.3125V6.61328H6.14062ZM11.4141 6.61328V7.78516H12.5859V6.61328H11.4141Z" fill="black" fill-opacity="0.2"/>
</svg>
