<svg width="24" height="24" viewBox="0 0 24 24" fill="none" xmlns="http://www.w3.org/2000/svg">
<path fill-rule="evenodd" clip-rule="evenodd" d="M6.57143 2C5.38796 2 4.42857 2.95939 4.42857 4.14286V5.57143H4.07143C3.47969 5.57143 3 6.05112 3 6.64286C3 7.23459 3.47969 7.71429 4.07143 7.71429H4.42857V16.2857H4.07143C3.47969 16.2857 3 16.7654 3 17.3571C3 17.9489 3.47969 18.4286 4.07143 18.4286H4.42857V19.8571C4.42857 21.0406 5.38796 22 6.57143 22H18C19.1835 22 20.1429 21.0406 20.1429 19.8571V4.14286C20.1429 2.95939 19.1835 2 18 2H6.57143ZM6.57143 17C6.57143 16.211 7.21102 15.5714 8 15.5714C8.78898 15.5714 9.42857 16.211 9.42857 17C9.42857 17.789 8.78898 18.4286 8 18.4286C7.21102 18.4286 6.57143 17.789 6.57143 17ZM10.8571 17C10.8571 16.211 11.4967 15.5714 12.2857 15.5714H16.9286C17.7176 15.5714 18.3571 16.211 18.3571 17C18.3571 17.789 17.7176 18.4286 16.9286 18.4286H12.2857C11.4967 18.4286 10.8571 17.789 10.8571 17ZM8 10.5714C7.21102 10.5714 6.57143 11.211 6.57143 12C6.57143 12.789 7.21102 13.4286 8 13.4286C8.78898 13.4286 9.42857 12.789 9.42857 12C9.42857 11.211 8.78898 10.5714 8 10.5714ZM12.2857 10.5714C11.4967 10.5714 10.8571 11.211 10.8571 12C10.8571 12.789 11.4967 13.4286 12.2857 13.4286H16.9286C17.7176 13.4286 18.3571 12.789 18.3571 12C18.3571 11.211 17.7176 10.5714 16.9286 10.5714H12.2857ZM6.57143 7C6.57143 6.21102 7.21102 5.57143 8 5.57143C8.78898 5.57143 9.42857 6.21102 9.42857 7C9.42857 7.78898 8.78898 8.42857 8 8.42857C7.21102 8.42857 6.57143 7.78898 6.57143 7ZM10.8571 7C10.8571 6.21102 11.4967 5.57143 12.2857 5.57143H16.9286C17.7176 5.57143 18.3571 6.21102 18.3571 7C18.3571 7.78898 17.7176 8.42857 16.9286 8.42857H12.2857C11.4967 8.42857 10.8571 7.78898 10.8571 7Z" fill="white"/>
</svg>
