<svg width="29" height="28" viewBox="0 0 29 28" fill="none" xmlns="http://www.w3.org/2000/svg">
<path d="M8.90282 9.62565C9.86975 9.62565 10.7971 9.24154 11.4808 8.55781C12.1645 7.87408 12.5487 6.94675 12.5487 5.97982C12.5487 5.01288 12.1645 4.08555 11.4808 3.40182C10.7971 2.7181 9.86975 2.33398 8.90282 2.33398C7.93588 2.33398 7.00855 2.7181 6.32482 3.40182C5.6411 4.08555 5.25698 5.01288 5.25698 5.97982C5.25698 6.94675 5.6411 7.87408 6.32482 8.55781C7.00855 9.24154 7.93588 9.62565 8.90282 9.62565ZM2.58337 13.0109C2.58337 11.9463 3.44574 11.084 4.51032 11.084H9.95476C9.52868 12.159 9.5214 13.3547 9.93436 14.4348C10.3473 15.5149 11.1505 16.4008 12.185 16.9173H9.85851C9.28387 16.917 8.72211 17.0875 8.24465 17.4073C7.76719 17.727 7.3956 18.1815 7.17712 18.713C5.22782 18.3523 4.05921 17.3791 3.39129 16.2922C2.58337 14.9826 2.58337 13.6293 2.58337 13.3959V13.0109ZM16.3141 16.9173H18.6425C19.853 16.9173 20.8903 17.6591 21.3239 18.713C23.2732 18.3523 24.4418 17.3791 25.1098 16.2922C25.9167 14.9816 25.9167 13.6283 25.9167 13.395V13.0109C25.917 12.7578 25.8673 12.5071 25.7705 12.2732C25.6738 12.0393 25.5319 11.8268 25.3529 11.6478C25.1739 11.4688 24.9614 11.3269 24.7275 11.2301C24.4936 11.1334 24.2429 11.0837 23.9898 11.084H18.5453C18.9714 12.159 18.9787 13.3547 18.5657 14.4348C18.1528 15.5149 17.3496 16.4008 16.315 16.9173M23.2431 5.97982C23.2431 6.94675 22.859 7.87408 22.1753 8.55781C21.4915 9.24154 20.5642 9.62565 19.5973 9.62565C18.6303 9.62565 17.703 9.24154 17.0193 8.55781C16.3355 7.87408 15.9514 6.94675 15.9514 5.97982C15.9514 5.01288 16.3355 4.08555 17.0193 3.40182C17.703 2.7181 18.6303 2.33398 19.5973 2.33398C20.5642 2.33398 21.4915 2.7181 22.1753 3.40182C22.859 4.08555 23.2431 5.01288 23.2431 5.97982ZM7.9306 19.8165C7.9306 18.7519 8.79296 17.8895 9.85754 17.8895H18.6425C19.7071 17.8895 20.5695 18.7519 20.5695 19.8165V20.2005C20.5695 20.4338 20.5695 21.7872 19.7625 23.0977C18.9167 24.4744 17.2698 25.6673 14.25 25.6673C11.2303 25.6673 9.58337 24.4734 8.73754 23.0987C7.9306 21.7872 7.9306 20.4348 7.9306 20.2005V19.8165ZM14.25 16.4312C15.217 16.4312 16.1443 16.0471 16.828 15.3634C17.5118 14.6796 17.8959 13.7523 17.8959 12.7854C17.8959 11.8184 17.5118 10.8911 16.828 10.2074C16.1443 9.52365 15.217 9.13954 14.25 9.13954C13.2831 9.13954 12.3558 9.52365 11.672 10.2074C10.9883 10.8911 10.6042 11.8184 10.6042 12.7854C10.6042 13.7523 10.9883 14.6796 11.672 15.3634C12.3558 16.0471 13.2831 16.4312 14.25 16.4312Z" fill="white"/>
</svg>
