<svg width="24" height="24" viewBox="0 0 24 24" fill="none" xmlns="http://www.w3.org/2000/svg">
<path d="M20.0111 18.9934C20.0111 18.9934 17.7913 15.1783 17.3931 14.494C17.8461 14.3558 18.3287 14.2338 18.5292 13.8875C18.8634 13.3106 18.2686 12.3642 18.4248 11.7459C18.5857 11.1095 19.5355 10.5588 19.5355 9.91186C19.5355 9.2816 18.5535 8.5453 18.3925 7.91261C18.2352 7.29435 18.8283 6.34694 18.493 5.77073C18.1578 5.19447 17.0411 5.24182 16.5814 4.79949C16.1084 4.34429 16.1099 3.23057 15.5394 2.92552C14.9666 2.61934 14.0357 3.23814 13.3997 3.09156C12.7709 2.94666 12.2092 2 11.5525 2C10.886 2 9.82595 3.07383 9.65969 3.11248C9.02403 3.26024 8.09191 2.64296 7.5197 2.95044C6.94977 3.25651 6.95328 4.37034 6.48117 4.82629C6.02224 5.26943 4.9055 5.22414 4.57126 5.80105C4.23708 6.37786 4.83194 7.32403 4.67579 7.94272C4.51921 8.56298 3.53629 9.19145 3.53629 9.90878C3.53629 10.5557 4.48851 11.1047 4.65039 11.7408C4.80772 12.3591 4.21465 13.3064 4.54991 13.8828C4.73243 14.1965 5.14655 14.3253 5.56013 14.4492C5.60839 14.4636 5.69968 14.5176 5.63785 14.6077C5.35491 15.0961 3.07758 19.0264 3.07758 19.0264C2.89641 19.339 3.04353 19.607 3.40441 19.6222L5.17087 19.6958C5.53175 19.711 5.98446 19.9733 6.17709 20.2788L7.11969 21.7745C7.31232 22.0801 7.61796 22.0743 7.79908 21.7618C7.79908 21.7618 10.4365 17.2084 10.4376 17.2071C10.4905 17.1453 10.5437 17.158 10.5691 17.1796C10.8577 17.4253 11.26 17.6704 11.5957 17.6704C11.925 17.6704 12.2299 17.4397 12.5314 17.1824C12.556 17.1615 12.6157 17.1186 12.6594 17.2076C12.6601 17.209 15.2946 21.7374 15.2946 21.7374C15.4762 22.0496 15.7818 22.0549 15.9739 21.749L16.9138 20.2515C17.1059 19.9457 17.5581 19.6824 17.919 19.6667L19.6853 19.5897C20.046 19.5739 20.1927 19.3056 20.0111 18.9934ZM14.4718 14.8976C12.5187 16.0339 10.1743 15.9121 8.38372 14.7826C5.75995 13.102 4.89663 9.6254 6.47392 6.90304C8.06921 4.14928 11.576 3.1776 14.3546 4.6909C14.3692 4.69885 14.3836 4.70706 14.3981 4.71517C14.4187 4.72657 14.4392 4.73814 14.4597 4.74981C15.3169 5.24403 16.0603 5.96131 16.5925 6.87618C18.2193 9.67242 17.268 13.2709 14.4718 14.8976Z" fill="#1C1C1C"/>
<path d="M20.0111 18.9934C20.0111 18.9934 17.7913 15.1783 17.3931 14.494C17.8461 14.3558 18.3287 14.2338 18.5292 13.8875C18.8634 13.3106 18.2686 12.3642 18.4248 11.7459C18.5857 11.1095 19.5355 10.5588 19.5355 9.91186C19.5355 9.2816 18.5535 8.5453 18.3925 7.91261C18.2352 7.29435 18.8283 6.34694 18.493 5.77073C18.1578 5.19447 17.0411 5.24182 16.5814 4.79949C16.1084 4.34429 16.1099 3.23057 15.5394 2.92552C14.9666 2.61934 14.0357 3.23814 13.3997 3.09156C12.7709 2.94666 12.2092 2 11.5525 2C10.886 2 9.82595 3.07383 9.65969 3.11248C9.02403 3.26024 8.09191 2.64296 7.5197 2.95044C6.94977 3.25651 6.95328 4.37034 6.48117 4.82629C6.02224 5.26943 4.9055 5.22414 4.57126 5.80105C4.23708 6.37786 4.83194 7.32403 4.67579 7.94272C4.51921 8.56298 3.53629 9.19145 3.53629 9.90878C3.53629 10.5557 4.48851 11.1047 4.65039 11.7408C4.80772 12.3591 4.21465 13.3064 4.54991 13.8828C4.73243 14.1965 5.14655 14.3253 5.56013 14.4492C5.60839 14.4636 5.69968 14.5176 5.63785 14.6077C5.35491 15.0961 3.07758 19.0264 3.07758 19.0264C2.89641 19.339 3.04353 19.607 3.40441 19.6222L5.17087 19.6958C5.53175 19.711 5.98446 19.9733 6.17709 20.2788L7.11969 21.7745C7.31232 22.0801 7.61796 22.0743 7.79908 21.7618C7.79908 21.7618 10.4365 17.2084 10.4376 17.2071C10.4905 17.1453 10.5437 17.158 10.5691 17.1796C10.8577 17.4253 11.26 17.6704 11.5957 17.6704C11.925 17.6704 12.2299 17.4397 12.5314 17.1824C12.556 17.1615 12.6157 17.1186 12.6594 17.2076C12.6601 17.209 15.2946 21.7374 15.2946 21.7374C15.4762 22.0496 15.7818 22.0549 15.9739 21.749L16.9138 20.2515C17.1059 19.9457 17.5581 19.6824 17.919 19.6667L19.6853 19.5897C20.046 19.5739 20.1927 19.3056 20.0111 18.9934ZM14.4718 14.8976C12.5187 16.0339 10.1743 15.9121 8.38372 14.7826C5.75995 13.102 4.89663 9.6254 6.47392 6.90304C8.06921 4.14928 11.576 3.1776 14.3546 4.6909C14.3692 4.69885 14.3836 4.70706 14.3981 4.71517C14.4187 4.72657 14.4392 4.73814 14.4597 4.74981C15.3169 5.24403 16.0603 5.96131 16.5925 6.87618C18.2193 9.67242 17.268 13.2709 14.4718 14.8976Z" fill="black" fill-opacity="0.2"/>
<path d="M14.0251 5.57232C14.017 5.56761 14.0088 5.56324 14.0007 5.55859C12.5164 4.69954 10.6246 4.63674 9.03913 5.55918C6.6863 6.92801 5.88568 9.95574 7.25451 12.3085C7.67219 13.0265 8.24456 13.5996 8.90493 14.0109C8.96108 14.0465 9.01789 14.0815 9.07593 14.1151C11.4313 15.4796 14.4574 14.6736 15.8219 12.3183C17.1864 9.96293 16.3805 6.93687 14.0251 5.57232ZM14.6144 9.42277L13.7896 10.2266C13.5342 10.4756 13.3746 10.967 13.4349 11.3186L13.6296 12.4536C13.6899 12.8052 13.481 12.957 13.1652 12.7911L12.1458 12.2551C11.8301 12.0891 11.3134 12.0891 10.9977 12.2551L9.97832 12.7911C9.66257 12.957 9.45357 12.8052 9.51389 12.4536L9.70857 11.3186C9.76889 10.967 9.60923 10.4756 9.3538 10.2266L8.52913 9.42277C8.27364 9.17382 8.35352 8.92812 8.70651 8.87678L9.84618 8.71117C10.1992 8.65988 10.6172 8.35618 10.7751 8.03632L11.2847 7.00362C11.4426 6.68377 11.701 6.68377 11.8588 7.00362L12.3685 8.03632C12.5264 8.35618 12.9443 8.65988 13.2974 8.71117L14.437 8.87678C14.79 8.92812 14.8698 9.17382 14.6144 9.42277Z" fill="#1C1C1C"/>
<path d="M14.0251 5.57232C14.017 5.56761 14.0088 5.56324 14.0007 5.55859C12.5164 4.69954 10.6246 4.63674 9.03913 5.55918C6.6863 6.92801 5.88568 9.95574 7.25451 12.3085C7.67219 13.0265 8.24456 13.5996 8.90493 14.0109C8.96108 14.0465 9.01789 14.0815 9.07593 14.1151C11.4313 15.4796 14.4574 14.6736 15.8219 12.3183C17.1864 9.96293 16.3805 6.93687 14.0251 5.57232ZM14.6144 9.42277L13.7896 10.2266C13.5342 10.4756 13.3746 10.967 13.4349 11.3186L13.6296 12.4536C13.6899 12.8052 13.481 12.957 13.1652 12.7911L12.1458 12.2551C11.8301 12.0891 11.3134 12.0891 10.9977 12.2551L9.97832 12.7911C9.66257 12.957 9.45357 12.8052 9.51389 12.4536L9.70857 11.3186C9.76889 10.967 9.60923 10.4756 9.3538 10.2266L8.52913 9.42277C8.27364 9.17382 8.35352 8.92812 8.70651 8.87678L9.84618 8.71117C10.1992 8.65988 10.6172 8.35618 10.7751 8.03632L11.2847 7.00362C11.4426 6.68377 11.701 6.68377 11.8588 7.00362L12.3685 8.03632C12.5264 8.35618 12.9443 8.65988 13.2974 8.71117L14.437 8.87678C14.79 8.92812 14.8698 9.17382 14.6144 9.42277Z" fill="black" fill-opacity="0.2"/>
</svg>
