<svg width="25" height="24" viewBox="0 0 25 24" fill="none" xmlns="http://www.w3.org/2000/svg">
<rect x="0.5" width="24" height="24" rx="12" fill="#B9DB28"/>
<path d="M16.5 8.00065C16.0933 8.00065 15.72 7.76732 15.5333 7.40732L15.0533 6.44065C14.7467 5.83398 13.9467 5.33398 13.2667 5.33398H11.74C11.0533 5.33398 10.2533 5.83398 9.94668 6.44065L9.46668 7.40732C9.28001 7.76732 8.90668 8.00065 8.50001 8.00065C7.05334 8.00065 5.90668 9.22065 6.00001 10.6607L6.34668 16.1673C6.42668 17.5407 7.16668 18.6673 9.00668 18.6673H15.9933C17.8333 18.6673 18.5667 17.5407 18.6533 16.1673L19 10.6607C19.0933 9.22065 17.9467 8.00065 16.5 8.00065ZM11.5 8.83398H13.5C13.7733 8.83398 14 9.06065 14 9.33398C14 9.60732 13.7733 9.83398 13.5 9.83398H11.5C11.2267 9.83398 11 9.60732 11 9.33398C11 9.06065 11.2267 8.83398 11.5 8.83398ZM12.5 16.0807C11.26 16.0807 10.2467 15.074 10.2467 13.8273C10.2467 12.5807 11.2533 11.574 12.5 11.574C13.7467 11.574 14.7533 12.5807 14.7533 13.8273C14.7533 15.074 13.74 16.0807 12.5 16.0807Z" fill="white"/>
</svg>
